<svg width="586" height="100" viewBox="0 0 586 100" fill="none" xmlns="http://www.w3.org/2000/svg">
<path d="M58.8422 42.5226C58.8422 44.7129 58.1614 46.5333 56.7998 47.9836C55.4383 49.4044 53.6327 50.396 51.3832 50.9584L60.4849 64.5H55.8674L47.4761 51.4023H43.347V64.5H39.5287V33.9092H47.3429C51.1316 33.9092 53.9879 34.6344 55.9118 36.0848C57.8654 37.5351 58.8422 39.6811 58.8422 42.5226ZM54.7575 42.5226C54.7575 40.569 54.1951 39.1631 53.0703 38.3047C51.9455 37.4463 50.1844 37.0171 47.7869 37.0171H43.347V48.3832H47.8313C50.1104 48.3832 51.8272 47.9244 52.9815 47.0069C54.1655 46.0597 54.7575 44.5649 54.7575 42.5226ZM69.0365 54.1107C69.1253 56.6858 69.7913 58.6246 71.0345 59.9269C72.3073 61.2293 73.9056 61.8805 75.8296 61.8805C76.9839 61.8805 78.0347 61.7177 78.9819 61.3921C79.9587 61.0369 80.9946 60.5041 82.0898 59.7937L83.8214 62.2801C82.7262 63.1384 81.4682 63.8044 80.0475 64.278C78.6563 64.7516 77.2503 64.9884 75.8296 64.9884C72.4553 64.9884 69.8209 63.8932 67.9266 61.7029C66.0618 59.4829 65.1295 56.523 65.1295 52.8231C65.1295 50.4848 65.5438 48.398 66.3726 46.5629C67.2014 44.6981 68.3854 43.2478 69.9245 42.2118C71.4637 41.1462 73.2544 40.6134 75.2968 40.6134C78.2567 40.6134 80.5802 41.6494 82.2674 43.7214C83.9842 45.7637 84.8425 48.5608 84.8425 52.1127C84.8425 52.7935 84.8129 53.4595 84.7537 54.1107H69.0365ZM75.3412 43.677C73.5356 43.677 72.0705 44.3281 70.9457 45.6305C69.8209 46.9033 69.1845 48.7828 69.0365 51.2692H81.2018C81.1722 48.8124 80.6394 46.9329 79.6035 45.6305C78.5675 44.3281 77.1467 43.677 75.3412 43.677ZM100.676 61.9249C102.452 61.9249 103.857 61.5845 104.893 60.9037C105.929 60.2229 106.447 59.3201 106.447 58.1954C106.447 57.4258 106.314 56.8042 106.048 56.3306C105.781 55.8274 105.249 55.3834 104.449 54.9987C103.65 54.5843 102.437 54.1699 100.809 53.7555C98.0856 53.0747 96.0729 52.2607 94.7705 51.3136C93.4682 50.3368 92.817 48.9012 92.817 47.0069C92.817 45.0533 93.6309 43.4994 95.2589 42.345C96.8869 41.1906 99.0328 40.6134 101.697 40.6134C104.953 40.6134 107.794 41.4718 110.221 43.1886L108.534 45.7637C107.557 45.0829 106.536 44.5649 105.471 44.2097C104.405 43.825 103.177 43.6326 101.786 43.6326C98.4112 43.6326 96.7241 44.6537 96.7241 46.6961C96.7241 47.4065 96.9017 47.9836 97.2569 48.4276C97.6416 48.8716 98.2484 49.2712 99.0772 49.6264C99.9356 49.952 101.208 50.3516 102.896 50.8252C105.441 51.5059 107.335 52.3791 108.579 53.4447C109.851 54.4807 110.488 56.005 110.488 58.0178C110.488 60.3561 109.541 62.1025 107.646 63.2568C105.752 64.4112 103.428 64.9884 100.676 64.9884C97.0053 64.9884 93.9565 63.9376 91.5294 61.8361L93.6161 59.3941C94.5633 60.1637 95.6437 60.7853 96.8573 61.2589C98.0708 61.7029 99.3436 61.9249 100.676 61.9249ZM128.23 40.6134C131.456 40.6134 133.928 41.7086 135.644 43.8989C137.391 46.0597 138.264 49.0196 138.264 52.7787C138.264 56.449 137.376 59.4089 135.6 61.6585C133.854 63.8784 131.382 64.9884 128.185 64.9884C124.959 64.9884 122.473 63.908 120.726 61.7473C118.98 59.5569 118.107 56.5822 118.107 52.8231C118.107 49.1232 118.98 46.1633 120.726 43.9433C122.502 41.7234 125.004 40.6134 128.23 40.6134ZM128.23 43.677C126.188 43.677 124.663 44.4317 123.657 45.9413C122.65 47.4509 122.147 49.7448 122.147 52.8231C122.147 55.9014 122.636 58.1954 123.612 59.7049C124.619 61.1849 126.143 61.9249 128.185 61.9249C130.228 61.9249 131.737 61.1849 132.714 59.7049C133.721 58.1954 134.224 55.8866 134.224 52.7787C134.224 49.7004 133.721 47.4213 132.714 45.9413C131.737 44.4317 130.243 43.677 128.23 43.677ZM155.074 58.7282C155.074 60.8297 156.361 61.8805 158.937 61.8805C160.15 61.8805 161.452 61.6141 162.844 61.0813L163.82 63.7896C162.34 64.5888 160.49 64.9884 158.271 64.9884C156.169 64.9884 154.482 64.4112 153.209 63.2568C151.966 62.1025 151.344 60.5337 151.344 58.5506V34.664H144.152V31.6893H155.074V58.7282ZM183.561 64.5H179.254L170.774 41.1018H174.77L181.518 61.1257L188.178 41.1018H192.085L183.561 64.5ZM208.051 30.1797C208.88 30.1797 209.546 30.4313 210.049 30.9345C210.552 31.4081 210.804 32.0297 210.804 32.7992C210.804 33.5688 210.552 34.2052 210.049 34.7084C209.546 35.182 208.88 35.4188 208.051 35.4188C207.252 35.4188 206.601 35.182 206.098 34.7084C205.624 34.2052 205.387 33.5688 205.387 32.7992C205.387 32.0297 205.624 31.4081 206.098 30.9345C206.601 30.4313 207.252 30.1797 208.051 30.1797ZM211.026 61.5253H217.597V64.5H200.104V61.5253H207.297V44.0765H200.326V41.1018H211.026V61.5253ZM225.794 41.1018H228.99L229.301 44.3873C230.219 43.2034 231.373 42.2858 232.764 41.6346C234.185 40.9538 235.606 40.6134 237.026 40.6134C241.407 40.6134 243.597 42.9222 243.597 47.5397V64.5H239.868V50.2924C239.868 48.546 239.764 47.2141 239.557 46.2965C239.38 45.3789 239.01 44.6981 238.447 44.2541C237.885 43.8102 237.026 43.5882 235.872 43.5882C234.599 43.5882 233.401 43.9729 232.276 44.7425C231.151 45.5121 230.233 46.4297 229.523 47.4953V64.5H225.794V41.1018ZM272.573 42.1674C271.685 42.4634 270.723 42.6558 269.687 42.7446C268.651 42.8038 267.333 42.8334 265.735 42.8334C268.458 44.0765 269.82 46.0449 269.82 48.7384C269.82 51.1064 269.035 53.0303 267.467 54.5103C265.898 55.9606 263.752 56.6858 261.029 56.6858C259.638 56.6858 258.468 56.523 257.521 56.1974C257.166 56.4638 256.87 56.8042 256.633 57.2186C256.426 57.633 256.323 58.0474 256.323 58.4618C256.323 59.7937 257.359 60.4597 259.43 60.4597H263.648C265.188 60.4597 266.579 60.7409 267.822 61.3033C269.095 61.8361 270.086 62.5909 270.797 63.5676C271.537 64.5444 271.907 65.6248 271.907 66.8087C271.907 69.0879 270.93 70.8342 268.976 72.0478C267.052 73.291 264.314 73.9125 260.762 73.9125C257.151 73.9125 254.606 73.3502 253.126 72.2254C251.646 71.1006 250.906 69.3099 250.906 66.8531H254.28C254.28 67.8299 254.458 68.5995 254.813 69.1619C255.198 69.7539 255.849 70.183 256.767 70.4494C257.714 70.7454 259.046 70.8934 260.762 70.8934C263.278 70.8934 265.128 70.5678 266.312 69.9167C267.526 69.2655 268.133 68.3035 268.133 67.0307C268.133 65.9652 267.644 65.1364 266.667 64.5444C265.691 63.982 264.433 63.7008 262.894 63.7008H258.72C256.796 63.7008 255.331 63.2864 254.325 62.4577C253.318 61.5993 252.815 60.5337 252.815 59.2609C252.815 58.521 253.037 57.7958 253.481 57.0854C253.925 56.3454 254.561 55.709 255.39 55.1762C254.058 54.4955 253.067 53.6371 252.415 52.6011C251.794 51.5355 251.483 50.248 251.483 48.7384C251.483 47.1697 251.868 45.7785 252.637 44.5649C253.437 43.3218 254.532 42.3598 255.923 41.679C257.344 40.9686 258.972 40.6134 260.807 40.6134C263.471 40.6134 265.498 40.4654 266.889 40.1694C268.281 39.8735 269.805 39.3703 271.463 38.6599L272.573 42.1674ZM260.762 43.3662C258.957 43.3662 257.595 43.8546 256.678 44.8313C255.76 45.7785 255.301 47.0809 255.301 48.7384C255.301 50.396 255.76 51.7279 256.678 52.7343C257.625 53.7111 259.016 54.1995 260.851 54.1995C262.509 54.1995 263.767 53.7259 264.625 52.7787C265.513 51.8019 265.957 50.4404 265.957 48.694C265.957 45.1421 264.226 43.3662 260.762 43.3662ZM325.95 43.3218C325.95 46.7257 324.899 49.212 322.797 50.7808C320.696 52.3495 317.81 53.1339 314.14 53.1339H310.188V64.5H306.37V33.9092H314.14C317.899 33.9092 320.799 34.6936 322.842 36.2624C324.914 37.8311 325.95 40.1842 325.95 43.3218ZM321.821 43.3662C321.821 41.1462 321.169 39.5331 319.867 38.5267C318.594 37.4907 316.848 36.9727 314.628 36.9727H310.188V50.0704H314.495C316.803 50.0704 318.594 49.5672 319.867 48.5608C321.169 47.5545 321.821 45.8229 321.821 43.3662ZM343.559 64.6332C342.641 67.3267 341.383 69.4727 339.785 71.071C338.186 72.6694 335.952 73.6166 333.08 73.9125L332.548 70.9378C334.116 70.6714 335.36 70.257 336.277 69.6947C337.224 69.1619 337.964 68.4811 338.497 67.6523C339.03 66.8531 339.518 65.8024 339.962 64.5H338.719L330.594 41.1018H334.546L341.25 61.6585L347.865 41.1018H351.728L343.559 64.6332ZM377.506 63.3012C376.707 63.834 375.73 64.2484 374.576 64.5444C373.451 64.8404 372.326 64.9884 371.202 64.9884C368.745 64.9884 366.821 64.352 365.43 63.0792C364.039 61.7769 363.343 60.0749 363.343 57.9734V44.0321H357.971V41.1018H363.343V35.8184L367.073 35.3744V41.1018H375.198L374.709 44.0321H367.073V57.929C367.073 59.2609 367.428 60.2525 368.138 60.9037C368.849 61.5549 369.988 61.8805 371.557 61.8805C373.155 61.8805 374.65 61.5105 376.041 60.7705L377.506 63.3012ZM389.255 44.3429C390.172 43.159 391.297 42.2414 392.629 41.5902C393.961 40.939 395.337 40.6134 396.758 40.6134C401.139 40.6134 403.329 42.9222 403.329 47.5397V64.5H399.6V47.5841C399.6 46.1929 399.274 45.1865 398.623 44.5649C397.972 43.9137 396.936 43.5882 395.515 43.5882C394.301 43.5882 393.132 43.9729 392.007 44.7425C390.883 45.5121 389.965 46.4149 389.255 47.4509V64.5H385.525V31.7337L389.255 31.3341V44.3429ZM421.071 40.6134C424.298 40.6134 426.769 41.7086 428.486 43.8989C430.232 46.0597 431.105 49.0196 431.105 52.7787C431.105 56.449 430.217 59.4089 428.441 61.6585C426.695 63.8784 424.224 64.9884 421.027 64.9884C417.801 64.9884 415.314 63.908 413.568 61.7473C411.822 59.5569 410.948 56.5822 410.948 52.8231C410.948 49.1232 411.822 46.1633 413.568 43.9433C415.344 41.7234 417.845 40.6134 421.071 40.6134ZM421.071 43.677C419.029 43.677 417.505 44.4317 416.498 45.9413C415.492 47.4509 414.989 49.7448 414.989 52.8231C414.989 55.9014 415.477 58.1954 416.454 59.7049C417.46 61.1849 418.985 61.9249 421.027 61.9249C423.069 61.9249 424.579 61.1849 425.556 59.7049C426.562 58.1954 427.065 55.8866 427.065 52.7787C427.065 49.7004 426.562 47.4213 425.556 45.9413C424.579 44.4317 423.084 43.677 421.071 43.677ZM438.769 41.1018H441.966L442.277 44.3873C443.194 43.2034 444.349 42.2858 445.74 41.6346C447.16 40.9538 448.581 40.6134 450.002 40.6134C454.383 40.6134 456.573 42.9222 456.573 47.5397V64.5H452.844V50.2924C452.844 48.546 452.74 47.2141 452.533 46.2965C452.355 45.3789 451.985 44.6981 451.423 44.2541C450.86 43.8102 450.002 43.5882 448.848 43.5882C447.575 43.5882 446.376 43.9729 445.251 44.7425C444.127 45.5121 443.209 46.4297 442.499 47.4953V64.5H438.769V41.1018Z" fill="url(#paint0_linear_722_75)"/>
<path d="M501 49.3333H551M548.667 35V51.6667M551 37.3333L536.333 37.3333" stroke="url(#paint1_linear_722_75)" stroke-width="4.66667"/>
<path d="M533.666 25V45.3333H528.999V25H533.666ZM533.666 53.3333V72.6667H528.999V53.3333H533.666ZM533.666 72.6667V73.6667H528.999V72.6667H533.666ZM516.999 70.3333H519.333V75H516.999V70.3333ZM519.333 70.3333H531.333V75H519.333V70.3333ZM531.333 70.3333H533.666V75H531.333V70.3333ZM516.999 75V72.6667H521.666V75H516.999ZM516.999 72.6667L516.999 58.3333L521.666 58.3333L521.666 72.6667L516.999 72.6667Z" fill="url(#paint2_linear_722_75)"/>
<defs>
<linearGradient id="paint0_linear_722_75" x1="88.5638" y1="29.8524" x2="97.1658" y2="99.365" gradientUnits="userSpaceOnUse">
<stop stop-color="#38BDF8"/>
<stop offset="1" stop-color="#0284C7"/>
</linearGradient>
<linearGradient id="paint1_linear_722_75" x1="507.287" y1="36.9976" x2="513.916" y2="56.9936" gradientUnits="userSpaceOnUse">
<stop stop-color="#38BDF8"/>
<stop offset="1" stop-color="#0284C7"/>
</linearGradient>
<linearGradient id="paint2_linear_722_75" x1="531.57" y1="30.9928" x2="511.51" y2="37.7157" gradientUnits="userSpaceOnUse">
<stop stop-color="#38BDF8"/>
<stop offset="1" stop-color="#0284C7"/>
</linearGradient>
</defs>
</svg>
