<svg width="500" height="125" viewBox="0 0 500 125" fill="none" xmlns="http://www.w3.org/2000/svg">
<path d="M25.2068 61.9973C25.2068 60.9425 26.0619 60.0874 27.1167 60.0874H29.0311C30.0859 60.0874 30.941 60.9425 30.941 61.9973V63.9117C30.941 64.9665 30.0859 65.8217 29.0311 65.8217H27.1167C26.0619 65.8217 25.2068 64.9665 25.2068 63.9117V61.9973Z" fill="black"/>
<path fill-rule="evenodd" clip-rule="evenodd" d="M11.1818 47.7348C11.1818 46.8771 11.8771 46.1818 12.7348 46.1818H36.3408L42.8635 37.4848C43.6314 36.461 42.9009 35 41.6211 35H1.55303C0.695314 35 0 35.6953 0 36.553V89.3559C0 90.2137 0.695315 90.909 1.55303 90.909H54.3559C55.2137 90.909 55.909 90.2137 55.909 89.3559V49.2878C55.909 48.0081 54.4479 47.2776 53.4241 48.0454L44.7272 54.5681V78.1742C44.7272 79.0319 44.0319 79.7272 43.1741 79.7272H11.1818V47.7348Z" fill="black"/>
<path d="M102.11 66.0606H95.0143C94.6712 66.0606 94.3931 66.3387 94.3931 66.6818V79.4652C94.3931 79.8083 94.1149 80.0864 93.7719 80.0864H87.7102C87.3671 80.0864 87.089 79.8083 87.089 79.4652V44.9395C87.089 44.5964 87.3671 44.3182 87.7102 44.3182H104.633C107.141 44.3668 109.066 44.6741 110.409 45.2404C111.768 45.8066 112.916 46.6397 113.854 47.7398C114.631 48.6457 115.246 49.6487 115.699 50.7488C116.152 51.8488 116.378 53.1026 116.378 54.51C116.378 56.2086 115.949 57.883 115.092 59.5331C114.473 60.7119 113.564 61.6424 112.365 62.3244C111.865 62.6086 111.844 63.447 112.329 63.7574C113.216 64.326 113.886 65.021 114.34 65.8422C115.035 67.0555 115.383 68.9159 115.383 71.4234V73.8258C115.383 75.4597 115.448 76.5678 115.577 77.1502C115.746 77.9522 116.111 78.5706 116.671 79.0055C116.829 79.1282 116.936 79.3106 116.936 79.5107C116.936 79.8287 116.678 80.0864 116.361 80.0864H109.179C108.901 80.0864 108.657 79.9026 108.584 79.6351C108.422 79.0475 108.303 78.5589 108.225 78.1694C108.031 77.1664 107.925 76.1391 107.909 75.0876L107.861 71.7631C107.828 69.4821 107.408 67.9615 106.599 67.2011C105.806 66.4408 104.31 66.0606 102.11 66.0606ZM106.647 59.5573C108.136 58.8779 108.88 57.5352 108.88 55.5292C108.88 53.3614 108.16 51.9054 106.72 51.1613C105.911 50.7407 104.698 50.5304 103.08 50.5304H95.0143C94.6712 50.5304 94.3931 50.8085 94.3931 51.1516V59.5185C94.3931 59.8616 94.6712 60.1397 95.0143 60.1397H102.862C104.544 60.1397 105.806 59.9456 106.647 59.5573Z" fill="black"/>
<path d="M144.219 72.3213C144.59 72.3213 144.88 72.645 144.797 73.0064C144.486 74.3537 143.709 75.7188 142.464 77.1017C140.199 79.6739 137.029 80.96 132.952 80.96C129.587 80.96 126.618 79.8761 124.046 77.7083C121.474 75.5406 120.188 72.0139 120.188 67.1283C120.188 62.5501 121.345 59.0396 123.658 56.5969C125.987 54.1541 129.005 52.9327 132.709 52.9327C134.909 52.9327 136.891 53.3452 138.654 54.1703C140.418 54.9953 141.874 56.2976 143.022 58.0771C144.058 59.6463 144.729 61.4663 145.036 63.537C145.198 64.6393 145.273 66.1823 145.261 68.1659C145.259 68.5055 144.982 68.7784 144.642 68.7784H127.797C127.445 68.7784 127.161 69.0713 127.192 69.422C127.393 71.7346 128.213 73.3804 129.652 74.3596C130.606 75.0229 131.755 75.3545 133.097 75.3545C134.521 75.3545 135.678 74.9501 136.567 74.1412C136.978 73.7721 137.347 73.2817 137.676 72.67C137.79 72.4595 138.006 72.3213 138.245 72.3213H144.219ZM137.411 64.2164C137.769 64.2164 138.056 63.9138 138.01 63.5585C137.814 62.053 137.277 60.8892 136.398 60.0669C135.411 59.1124 134.181 58.6352 132.709 58.6352C131.108 58.6352 129.862 59.1367 128.972 60.1397C128.221 61.0022 127.709 62.128 127.436 63.5169C127.364 63.8853 127.655 64.2164 128.031 64.2164H137.411Z" fill="black"/>
<path d="M168.162 54.8497C170.085 56.0815 171.247 58.1362 171.65 61.0139C171.7 61.3767 171.412 61.6927 171.046 61.6927H165.37C165.053 61.6927 164.791 61.4529 164.729 61.1422C164.601 60.5076 164.378 59.9874 164.061 59.5816C163.301 58.6433 162.006 58.1742 160.178 58.1742C158.674 58.1742 157.598 58.4087 156.951 58.8779C156.32 59.347 156.005 59.897 156.005 60.528C156.005 61.3207 156.344 61.895 157.024 62.2509C157.703 62.6229 160.106 63.2619 164.231 64.1679C166.981 64.815 169.044 65.7937 170.419 67.1041C171.777 68.4306 172.457 70.0888 172.457 72.0786C172.457 74.6993 171.478 76.8428 169.521 78.5091C167.579 80.1592 164.57 80.9842 160.494 80.9842C156.336 80.9842 153.262 80.1107 151.273 78.3635C149.451 76.7364 148.471 74.7029 148.33 72.263C148.31 71.9205 148.59 71.6418 148.933 71.6418H154.773C155.088 71.6418 155.35 71.8779 155.405 72.1879C155.573 73.1336 155.861 73.8251 156.271 74.2625C157.129 75.1847 158.714 75.6457 161.028 75.6457C162.387 75.6457 163.462 75.4435 164.255 75.0391C165.064 74.6346 165.468 74.028 165.468 73.2191C165.468 72.4426 165.145 71.8521 164.498 71.4477C163.851 71.0433 161.448 70.3476 157.291 69.3608C154.298 68.6166 152.187 67.6864 150.957 66.5702C149.728 65.4702 149.113 63.8848 149.113 61.8141C149.113 59.3713 150.067 57.2763 151.976 55.5292C153.901 53.7658 156.603 52.8842 160.081 52.8842C163.381 52.8842 166.075 53.5393 168.162 54.8497Z" fill="black"/>
<path d="M199.659 56.9851C201.892 59.7838 203.008 63.0921 203.008 66.9099C203.008 70.7925 201.892 74.117 199.659 76.8833C197.427 79.6334 194.038 81.0085 189.492 81.0085C184.946 81.0085 181.557 79.6334 179.324 76.8833C177.092 74.117 175.976 70.7925 175.976 66.9099C175.976 63.0921 177.092 59.7838 179.324 56.9851C181.557 54.1864 184.946 52.7871 189.492 52.7871C194.038 52.7871 197.427 54.1864 199.659 56.9851ZM189.467 58.6352C187.445 58.6352 185.884 59.3551 184.784 60.7949C183.7 62.2185 183.158 64.2568 183.158 66.9099C183.158 69.563 183.7 71.6095 184.784 73.0492C185.884 74.489 187.445 75.2089 189.467 75.2089C191.49 75.2089 193.043 74.489 194.127 73.0492C195.21 71.6095 195.752 69.563 195.752 66.9099C195.752 64.2568 195.21 62.2185 194.127 60.7949C193.043 59.3551 191.49 58.6352 189.467 58.6352Z" fill="black"/>
<path d="M208.128 44.9395C208.128 44.5964 208.406 44.3182 208.749 44.3182H214.423C214.766 44.3182 215.044 44.5964 215.044 44.9395V79.4652C215.044 79.8083 214.766 80.0864 214.423 80.0864H208.749C208.406 80.0864 208.128 79.8083 208.128 79.4652V44.9395Z" fill="black"/>
<path d="M219.516 54.4674C219.37 54.0627 219.67 53.6364 220.1 53.6364H226.513C226.791 53.6364 227.035 53.8212 227.11 54.0888L231.9 71.0519C232.07 71.6533 232.921 71.6558 233.094 71.0553L237.991 54.0854C238.068 53.8195 238.311 53.6364 238.588 53.6364H244.662C245.092 53.6364 245.392 54.0635 245.246 54.4683L236.158 79.6759C236.069 79.9222 235.835 80.0864 235.573 80.0864H229.143C228.881 80.0864 228.647 79.9218 228.558 79.6749L219.516 54.4674Z" fill="black"/>
<path d="M255.966 53.6364C256.309 53.6364 256.587 53.9145 256.587 54.2576V79.4652C256.587 79.8083 256.309 80.0864 255.966 80.0864H250.196C249.853 80.0864 249.574 79.8083 249.574 79.4652V54.2576C249.574 53.9145 249.853 53.6364 250.196 53.6364H255.966ZM255.966 44.0999C256.309 44.0999 256.587 44.378 256.587 44.7211V49.8606C256.587 50.2037 256.309 50.4818 255.966 50.4818H250.196C249.853 50.4818 249.574 50.2037 249.574 49.8606V44.7211C249.574 44.378 249.853 44.0999 250.196 44.0999H255.966Z" fill="black"/>
<path d="M275.757 58.7565C273.412 58.7565 271.802 59.7515 270.929 61.7413C270.476 62.7928 270.249 64.1355 270.249 65.7694V79.4652C270.249 79.8083 269.971 80.0864 269.628 80.0864H263.979C263.636 80.0864 263.358 79.8083 263.358 79.4652V54.3062C263.358 53.9631 263.636 53.6849 263.979 53.6849H269.409C269.753 53.6849 270.031 53.9631 270.031 54.3062V55.4604C270.031 56.0777 270.866 56.3377 271.264 55.8662C271.708 55.3414 272.138 54.9217 272.554 54.6071C273.978 53.5393 275.782 53.0055 277.966 53.0055C280.7 53.0055 282.932 53.7254 284.663 55.1652C286.41 56.5888 287.284 58.9588 287.284 62.2751V79.4652C287.284 79.8083 287.006 80.0864 286.663 80.0864H280.819C280.476 80.0864 280.198 79.8083 280.198 79.4652V63.998C280.198 62.6068 280.012 61.5391 279.64 60.7949C278.961 59.436 277.666 58.7565 275.757 58.7565Z" fill="black"/>
<path d="M301.164 84.7212C301.908 85.3521 303.162 85.6676 304.925 85.6676C307.417 85.6676 309.083 84.8345 309.924 83.1682C310.474 82.1005 310.749 80.3048 310.749 77.7811C310.749 77.3112 310.087 77.118 309.789 77.4821C309.411 77.9455 309.019 78.3283 308.614 78.6304C307.239 79.682 305.451 80.2077 303.251 80.2077C299.854 80.2077 297.136 79.0187 295.098 76.6406C293.075 74.2464 292.064 71.0109 292.064 66.9342C292.064 63.0031 293.043 59.7029 295 57.0337C296.958 54.3482 299.732 53.0055 303.324 53.0055C304.65 53.0055 305.807 53.2077 306.794 53.6121C307.807 54.0312 308.703 54.6615 309.482 55.5032C309.917 55.9735 310.87 55.6932 310.87 55.0525V54.2576C310.87 53.9145 311.149 53.6364 311.492 53.6364H316.971C317.314 53.6364 317.592 53.9145 317.592 54.2576V78.7275C317.592 82.1409 317.018 84.7131 315.869 86.4441C313.896 89.4207 310.11 90.9091 304.513 90.9091C301.132 90.9091 298.373 90.2458 296.238 88.9192C294.288 87.7079 293.134 85.9502 292.776 83.6462C292.72 83.2865 293.008 82.9741 293.372 82.9741H299.728C300.015 82.9741 300.26 83.1729 300.353 83.4447C300.547 84.0131 300.817 84.4386 301.164 84.7212ZM299.999 71.0594C300.938 73.2919 302.62 74.4081 305.047 74.4081C306.664 74.4081 308.031 73.8015 309.148 72.5882C310.264 71.3587 310.822 69.4093 310.822 66.7401C310.822 64.2326 310.288 62.3237 309.22 61.0133C308.169 59.7029 306.753 59.0477 304.974 59.0477C302.547 59.0477 300.873 60.1882 299.951 62.4692C299.465 63.6826 299.223 65.179 299.223 66.9585C299.223 68.4953 299.482 69.8623 299.999 71.0594Z" fill="black"/>
<path d="M353.651 67.2254H346.677C346.334 67.2254 346.056 67.5035 346.056 67.8466V79.4652C346.056 79.8083 345.778 80.0864 345.435 80.0864H339.252C338.909 80.0864 338.631 79.8083 338.631 79.4652V44.9395C338.631 44.5964 338.909 44.3182 339.252 44.3182H354.21C357.801 44.3182 360.664 45.2404 362.8 47.0846C364.935 48.9288 366.003 51.7841 366.003 55.6505C366.003 59.8728 364.935 62.8575 362.8 64.6047C360.664 66.3518 357.615 67.2254 353.651 67.2254ZM357.146 59.7757C358.116 58.9183 358.602 57.5594 358.602 55.699C358.602 53.8386 358.108 52.5121 357.122 51.7194C356.151 50.9267 354.784 50.5304 353.021 50.5304H346.677C346.334 50.5304 346.056 50.8085 346.056 51.1516V60.4406C346.056 60.7837 346.334 61.0618 346.677 61.0618H353.021C354.784 61.0618 356.159 60.6331 357.146 59.7757Z" fill="black"/>
<path d="M381.188 71.0775C381.365 71.6753 382.214 71.6689 382.382 71.0685L387.133 54.0902C387.208 53.8219 387.453 53.6364 387.731 53.6364H393.738C394.166 53.6364 394.465 54.0585 394.324 54.4623L385.537 79.6496C383.79 84.6646 382.407 87.7706 381.388 88.9678C380.368 90.1811 378.33 90.7877 375.273 90.7877C374.658 90.7877 374.164 90.7796 373.792 90.7635C373.524 90.7635 373.16 90.7509 372.699 90.7257C372.372 90.7078 372.118 90.436 372.118 90.1086V85.8147C372.118 85.4581 372.418 85.1746 372.774 85.1944L372.992 85.2065C373.671 85.2389 374.318 85.2146 374.933 85.1337C375.548 85.0528 376.065 84.8668 376.486 84.5756C376.89 84.3006 377.262 83.7263 377.602 82.8527C377.958 81.9791 378.104 81.4453 378.039 81.2512L368.623 54.4636C368.481 54.0596 368.781 53.6364 369.209 53.6364H375.561C375.836 53.6364 376.078 53.8174 376.156 54.0813L381.188 71.0775Z" fill="black"/>
<path d="M410.157 75.2064C410.516 75.1823 410.822 75.467 410.822 75.8276V79.7304C410.822 80.0646 410.558 80.3388 410.224 80.3512L407.546 80.4504C404.279 80.5636 402.046 79.9974 400.849 78.7518C400.072 77.9591 399.684 76.7377 399.684 75.0876V59.4263C399.684 59.0832 399.406 58.8051 399.063 58.8051H396.617C396.274 58.8051 395.996 58.527 395.996 58.1839V54.5003C395.996 54.1572 396.274 53.8791 396.617 53.8791H399.063C399.406 53.8791 399.684 53.6009 399.684 53.2579V47.1234C399.684 46.7803 399.962 46.5022 400.305 46.5022H405.906C406.249 46.5022 406.527 46.7803 406.527 47.1234V53.2579C406.527 53.6009 406.805 53.8791 407.148 53.8791H410.201C410.544 53.8791 410.822 54.1572 410.822 54.5003V58.1839C410.822 58.527 410.544 58.8051 410.201 58.8051H407.148C406.805 58.8051 406.527 59.0832 406.527 59.4263V72.7823C406.527 73.8662 406.665 74.5457 406.94 74.8207C407.215 75.0795 408.056 75.2089 409.463 75.2089C409.674 75.2089 409.892 75.2089 410.119 75.2089C410.131 75.2081 410.144 75.2072 410.157 75.2064Z" fill="black"/>
<path d="M439.165 64.5561V79.4652C439.165 79.8083 438.887 80.0864 438.544 80.0864H432.725C432.382 80.0864 432.104 79.8083 432.104 79.4652V63.998C432.104 62.5744 431.861 61.4258 431.376 60.5522C430.745 59.3228 429.548 58.708 427.784 58.708C425.956 58.708 424.565 59.3228 423.61 60.5522C422.672 61.7655 422.203 63.5046 422.203 65.7694V79.4652C422.203 79.8083 421.925 80.0864 421.582 80.0864H415.933C415.59 80.0864 415.311 79.8083 415.311 79.4652V45.0608C415.311 44.7177 415.59 44.4396 415.933 44.4396H421.582C421.925 44.4396 422.203 44.7177 422.203 45.0608V54.9937C422.203 55.6115 423.065 55.889 423.497 55.4466C424.168 54.7579 424.893 54.2354 425.673 53.8791C427 53.2643 428.391 52.957 429.847 52.957C431.481 52.957 432.961 53.2401 434.288 53.8063C435.63 54.3725 436.73 55.238 437.588 56.4027C438.316 57.3896 438.761 58.4087 438.922 59.4603C439.084 60.4956 439.165 62.1942 439.165 64.5561Z" fill="black"/>
<path d="M467.702 56.9851C469.934 59.7838 471.051 63.0921 471.051 66.9099C471.051 70.7925 469.934 74.117 467.702 76.8833C465.469 79.6334 462.08 81.0085 457.534 81.0085C452.989 81.0085 449.599 79.6334 447.367 76.8833C445.134 74.117 444.018 70.7925 444.018 66.9099C444.018 63.0921 445.134 59.7838 447.367 56.9851C449.599 54.1864 452.989 52.7871 457.534 52.7871C462.08 52.7871 465.469 54.1864 467.702 56.9851ZM457.51 58.6352C455.488 58.6352 453.927 59.3551 452.827 60.7949C451.743 62.2185 451.201 64.2568 451.201 66.9099C451.201 69.563 451.743 71.6095 452.827 73.0492C453.927 74.489 455.488 75.2089 457.51 75.2089C459.532 75.2089 461.085 74.489 462.169 73.0492C463.253 71.6095 463.795 69.563 463.795 66.9099C463.795 64.2568 463.253 62.2185 462.169 60.7949C461.085 59.3551 459.532 58.6352 457.51 58.6352Z" fill="black"/>
<path d="M488.474 58.7565C486.128 58.7565 484.518 59.7515 483.645 61.7413C483.192 62.7928 482.965 64.1355 482.965 65.7694V79.4652C482.965 79.8083 482.687 80.0864 482.344 80.0864H476.695C476.352 80.0864 476.074 79.8083 476.074 79.4652V54.3062C476.074 53.9631 476.352 53.6849 476.695 53.6849H482.126C482.469 53.6849 482.747 53.9631 482.747 54.3062V55.4604C482.747 56.0777 483.582 56.3377 483.98 55.8662C484.424 55.3414 484.854 54.9217 485.271 54.6071C486.694 53.5393 488.498 53.0055 490.682 53.0055C493.416 53.0055 495.648 53.7254 497.379 55.1652C499.126 56.5888 500 58.9588 500 62.2751V79.4652C500 79.8083 499.722 80.0864 499.379 80.0864H493.535C493.192 80.0864 492.914 79.8083 492.914 79.4652V63.998C492.914 62.6068 492.728 61.5391 492.356 60.7949C491.677 59.436 490.383 58.7565 488.474 58.7565Z" fill="black"/>
</svg>
